# xmcd
#
# Track frame offsets: 
#        150
#        15704
#        41218
#        58430
#        80551
#        117571
#        131878
#        155568
#        175241
#        185203
#        205552
#
# Disc length: 2940 seconds
#
# Revision: 15
# Processed by: cddbd v1.5.2PL0 Copyright (c) Steve Scherf et al.
# Submitted via: ExactAudioCopy v1.0b3
#
DISCID=a70b7a0b
DTITLE=Joe Bonamassa - Sloe Gin
DYEAR=2007
DGENRE=Blues
TTITLE0=Ball Peen Hammer
TTITLE1=One Of These Days
TTITLE2=Seagull
TTITLE3=Dirt In My Pocket
TTITLE4=Sloe Gin
TTITLE5=Another Kind Of Love
TTITLE6=Around The Bend
TTITLE7=Black Night
TTITLE8=Jelly Roll
TTITLE9=Richmond
TTITLE10=India
EXTD=
EXTT0=
EXTT1=
EXTT2=
EXTT3=
EXTT4=
EXTT5=
EXTT6=
EXTT7=
EXTT8=
EXTT9=
EXTT10=
PLAYORDER=
